<svg width="70" height="70" viewBox="0 0 70 70" fill="none" xmlns="http://www.w3.org/2000/svg">
<rect width="70" height="70" rx="35" fill="#BFA1F8"/>
<path d="M49.3489 34.0253C49.9395 33.4498 50.1479 32.6052 49.8932 31.8201C49.6379 31.0349 48.9729 30.4745 48.1559 30.3555L40.8921 29.3001C40.5827 29.255 40.3154 29.061 40.1773 28.7804L36.9298 22.199C36.5652 21.4595 35.8251 21 35.0003 21C34.1761 21 33.436 21.4595 33.0714 22.199L29.8233 28.781C29.6852 29.0616 29.4173 29.2556 29.1079 29.3007L21.8441 30.3561C21.0277 30.4745 20.3621 31.0355 20.1068 31.8207C19.8521 32.6058 20.0605 33.4504 20.651 34.0259L25.9067 39.1488C26.1308 39.3674 26.2335 39.6822 26.1806 39.9898L24.9407 47.2236C24.8308 47.8603 24.9978 48.4797 25.4099 48.968C26.0503 49.7291 27.1682 49.961 28.0621 49.4913L34.5582 46.0756C34.8297 45.9332 35.1715 45.9344 35.4424 46.0756L41.9391 49.4913C42.2551 49.6577 42.5921 49.7418 42.9399 49.7418C43.5749 49.7418 44.1768 49.4594 44.5907 48.968C45.0034 48.4797 45.1698 47.8591 45.0599 47.2236L43.8194 39.9898C43.7665 39.6816 43.8692 39.3674 44.0933 39.1488L49.3489 34.0253Z" fill="white"/>
</svg>
