<svg width="70" height="70" viewBox="0 0 70 70" fill="none" xmlns="http://www.w3.org/2000/svg">
<rect width="70" height="70" rx="35" fill="#81DC9A"/>
<path d="M48.1632 25.5495C48.1525 25.4071 48.0333 25.2969 47.8906 25.2969H42.9687V23.9297C42.9687 19.5571 39.4113 16 35.039 16C30.6668 16 27.1093 19.5571 27.1093 23.9297V25.2969H22.1875C22.0447 25.2969 21.9255 25.4071 21.9148 25.5495L20.0008 50.7058C19.995 50.7815 20.021 50.8564 20.073 50.9122C20.1247 50.9683 20.1974 51 20.2734 51H49.8047C49.8807 51 49.9534 50.9683 50.0051 50.9125C50.0568 50.8567 50.083 50.7818 50.0773 50.7061L48.1632 25.5495ZM29.2968 23.9297C29.2968 20.7636 31.8726 18.1875 35.039 18.1875C38.2054 18.1875 40.7812 20.7636 40.7812 23.9297V25.2969H29.2968V23.9297ZM28.2031 32.9531C26.6951 32.9531 25.4687 31.7265 25.4687 30.2188C25.4687 29.1275 26.0156 28.1442 27.1093 27.7127V30.2188C27.1093 30.822 27.6002 31.3125 28.2031 31.3125C28.806 31.3125 29.2968 30.822 29.2968 30.2188V27.7143C30.3906 28.1458 30.9375 29.1365 30.9375 30.2188C30.9375 31.7265 29.7111 32.9531 28.2031 32.9531ZM41.875 32.9531C40.367 32.9531 39.1406 31.7265 39.1406 30.2188C39.1406 29.1275 39.6875 28.1442 40.7812 27.7127V30.2188C40.7812 30.822 41.272 31.3125 41.875 31.3125C42.4779 31.3125 42.9687 30.822 42.9687 30.2188V27.7143C44.0625 28.1458 44.6093 29.1365 44.6093 30.2188C44.6093 31.7265 43.383 32.9531 41.875 32.9531Z" fill="white"/>
</svg>
