<svg width="23" height="23" viewBox="0 0 23 23" fill="none" xmlns="http://www.w3.org/2000/svg">
<path d="M20.6466 6.48647C20.2676 6.0089 12.6231 1.55153 8.89567 0.96783C6.62129 0.596383 4.41009 3.56796 1.44076 5.266C0.493102 5.79664 -0.0754929 6.53953 0.429925 7.33549C0.99852 8.18451 2.13571 8.29064 3.20972 7.91919C5.42092 7.07017 8.07437 4.73536 9.27473 5.58438C10.791 6.5926 11.7386 8.5029 11.7386 10.8377C11.7386 12.1112 9.96968 12.748 8.76932 13.1195C7.50577 13.544 4.22056 14.0215 3.52561 10.7846C3.33608 9.98868 2.89384 8.82128 2.38842 8.5029C1.75665 8.13145 0.177216 7.86613 0.0508615 8.98047C-0.0754929 10.3601 0.0508615 11.3683 0.240393 12.3766C0.429925 13.597 0.556279 14.9236 1.44076 16.2502C2.19889 17.3115 2.38842 18.1075 3.90467 18.532C8.2639 19.8055 8.76931 19.9647 10.7278 21.7689C12.3704 23.2546 17.2351 21.7158 18.4986 21.6097C23.4264 21.079 22.2892 21.2382 20.8362 18.2666C20.2676 17.0462 20.3307 14.7644 20.5835 13.8093C20.8362 12.748 21.4679 7.60081 20.6466 6.48647Z" fill="#E3A00D"/>
<path d="M1.43973 5.26624C4.34588 3.62126 6.55708 0.596621 8.89464 0.968068C10.6004 1.23339 12.938 2.18854 15.086 3.30288C17.8026 4.62947 20.3929 6.22139 20.5824 6.48671C21.3406 7.60105 20.8351 12.4829 20.5192 13.6503C20.2665 14.5524 20.1402 16.8342 20.7088 18.0016C20.8983 18.373 21.0247 18.6914 21.151 18.9567C22.1619 20.867 22.5409 20.867 18.6871 21.3446C18.2449 21.5568 16.4127 21.9283 14.7069 22.1405C13.1907 22.2997 11.5481 22.4059 10.7268 21.663C9.58959 20.6548 9.08417 20.1241 7.69427 19.5935C6.62026 19.222 5.48307 18.8506 3.71411 18.2669C2.32421 17.8424 2.13468 17.0464 1.37655 15.9851C0.492073 14.6585 0.365718 13.3319 0.176187 12.1115C0.0498323 11.1033 0.0498323 10.095 0.176187 8.98071C0.302541 8.02556 1.75562 8.29088 2.38739 8.76845C2.57692 8.82152 2.6401 8.92765 2.70327 8.98071C3.14551 9.51135 3.4614 10.4134 3.65093 11.0502C4.47224 14.1279 7.6311 13.5442 9.021 13.0136C10.1582 12.5891 11.9271 11.8992 11.864 10.6257C11.864 10.3073 11.8008 9.98892 11.7376 9.7236C11.3586 7.86637 10.4741 6.32752 9.21053 5.42543C8.76829 5.10705 8.19969 5.16011 7.56792 5.42543C6.30438 6.00913 4.72495 7.17654 3.20869 7.76024C2.51374 8.02556 1.69244 8.07862 1.06067 7.8133C0.807959 7.70718 0.618427 7.54799 0.428896 7.28267C0.239364 7.01735 0.176187 6.69896 0.176187 6.43364C0.365718 6.0622 0.807959 5.63769 1.43973 5.26624Z" fill="#E5A412"/>
<path d="M1.43933 5.31923C4.21912 3.72731 6.55668 0.649608 8.89424 1.02105C10.6 1.28637 12.9376 2.24152 15.0856 3.3028C17.739 4.6294 20.3925 6.22131 20.582 6.48663C21.4033 7.54791 20.8347 12.2706 20.5188 13.5972C20.3293 14.4993 20.1398 16.6749 20.6452 17.8423C20.7715 18.2137 20.9611 18.5321 21.0874 18.7974C22.0351 20.7077 22.4773 20.7608 19.0026 21.2384C18.7499 21.6098 16.7282 21.9282 15.0224 22.0874C13.5062 22.2466 11.7372 22.4589 10.9159 21.6629C9.84189 20.6547 9.39965 20.071 7.75705 19.5403C6.55668 19.1158 5.41949 18.7444 3.65053 18.1607C2.38698 17.7362 2.13427 16.9402 1.37615 15.8259C0.554844 14.4993 0.42849 13.1727 0.238958 11.9522C0.112604 10.944 0.175781 9.88272 0.42849 9.0337C0.681199 8.18467 1.94474 8.60919 2.51334 9.0337C2.57651 9.08676 2.70287 9.19289 2.76605 9.29902C3.20829 9.82965 3.58735 10.7317 3.77688 11.3685C4.72454 14.234 7.82022 13.6503 9.21012 13.0135C10.3473 12.4828 12.0531 11.793 11.9899 10.5195C11.9899 10.2011 11.9267 9.88272 11.8636 9.6174C11.3581 7.76016 10.4105 6.27438 9.2733 5.31923C8.83106 4.94778 8.32564 4.94778 7.69387 5.26616C6.4935 5.90293 4.85089 7.01727 3.39782 7.65404C2.70287 7.97242 1.88157 8.02548 1.31297 7.81323C1.06026 7.7071 0.807553 7.60097 0.618022 7.33565C0.42849 7.07033 0.302136 6.80501 0.365313 6.48663C0.365313 6.06212 0.870731 5.63761 1.43933 5.31923Z" fill="#E7A818"/>
<path d="M1.43916 5.37234C4.15578 3.88656 6.49334 0.702726 8.89407 1.12724C10.663 1.39256 12.9374 2.34771 15.0223 3.40898C17.6125 4.68251 20.3291 6.32749 20.4555 6.53975C21.2768 7.60103 20.7714 12.1115 20.3923 13.5972C20.2028 14.4463 20.0133 16.5688 20.3923 17.6832C20.5187 18.0546 20.645 18.3199 20.7714 18.5852C21.6559 20.4425 22.1613 20.5486 19.1288 21.0262C19.0656 21.5568 16.8544 21.7691 15.1486 21.9283C13.6324 22.0875 11.737 22.4058 10.8526 21.5568C9.77855 20.5486 9.46267 19.9649 7.63053 19.3812C6.24063 18.9567 5.10344 18.5322 3.46083 17.9485C2.26047 17.524 2.00776 16.6749 1.31281 15.5606C0.554683 14.234 0.365151 12.9074 0.238797 11.74C0.112442 10.7318 0.301974 9.67052 0.61786 9.03375C0.933746 8.39698 2.07094 8.8215 2.57635 9.29907C2.63953 9.35213 2.70271 9.45826 2.76589 9.56439C3.20813 10.1481 3.58719 11.0502 3.8399 11.6339C4.91391 14.3401 7.94642 13.6503 9.33631 12.9605C10.4735 12.3768 12.0529 11.6339 11.9898 10.4134C11.9898 10.095 11.9266 9.77664 11.8002 9.51132C11.1053 7.70715 10.2208 6.1683 9.14678 5.26622C8.70454 4.84171 8.19912 4.78864 7.56735 5.16009C6.36699 5.84992 4.78756 6.96426 3.33448 7.60103C2.70271 7.91941 1.94458 8.02554 1.37599 7.86635C1.12328 7.81328 0.870569 7.65409 0.681037 7.44184C0.428328 7.17652 0.365151 6.9112 0.365151 6.59281C0.365151 6.11524 0.870569 5.69073 1.43916 5.37234Z" fill="#EAAC1D"/>
<path d="M1.43978 5.42525C4.09322 3.99253 6.49395 0.755634 8.89469 1.18014C10.6636 1.49853 12.938 2.34755 15.0229 3.40883C17.4868 4.6293 20.2666 6.32734 20.4561 6.53959C21.2774 7.60087 20.772 11.846 20.3929 13.544C20.2034 14.34 20.0139 16.4095 20.3298 17.5238C20.4561 17.8953 20.5193 18.1606 20.6456 18.4259C21.4038 20.2831 22.0355 20.3893 19.3821 20.9199C19.5085 21.5567 17.1709 21.7689 15.4019 21.875C13.8857 22.0342 11.864 22.4587 10.9795 21.6097C9.9687 20.6546 9.71599 20.0178 7.63114 19.381C6.05171 18.9035 4.91452 18.479 3.33509 17.8422C2.1979 17.4177 1.94519 16.5687 1.31342 15.4543C0.555295 14.1808 0.428941 12.8011 0.302586 11.6337C0.176232 10.5724 0.302586 9.51117 0.871181 9.13972C1.12389 8.60908 2.26108 9.13972 2.70332 9.6173C2.7665 9.72342 2.82967 9.77649 2.89285 9.88262C3.33509 10.5194 3.77733 11.3684 4.03004 11.9521C5.23041 14.4461 8.13656 13.7563 9.65281 12.9073C10.79 12.2705 12.3063 11.4745 12.2431 10.2541C12.2431 9.93568 12.1799 9.6173 12.0535 9.35198C11.2322 7.54781 10.2846 6.06202 9.27375 5.10687C8.76833 4.62929 8.38927 4.57623 7.7575 4.94768C6.62031 5.69057 5.04088 6.80491 3.52462 7.44168C2.82967 7.76006 2.07155 7.86619 1.43978 7.76006C1.18707 7.707 0.934358 7.60087 0.744827 7.38862C0.492118 7.17636 0.428941 6.85798 0.365763 6.59266C0.365763 6.16815 0.871181 5.69057 1.43978 5.42525Z" fill="#ECB022"/>
<path d="M1.43831 5.4252C3.9654 4.04554 6.42931 0.755578 8.89322 1.18009C10.7254 1.49847 12.9366 2.34749 14.9582 3.35571C17.359 4.57618 20.2019 6.27422 20.3915 6.48647C21.2128 7.54775 20.7705 11.5806 20.3283 13.4378C20.1388 14.1807 19.9492 16.1972 20.2019 17.3115C20.2651 17.6299 20.3915 17.9483 20.4546 18.1605C21.1496 19.9647 21.8445 20.1239 19.6333 20.7076C19.9492 21.5035 17.4221 21.6097 15.6532 21.7689C14.0738 21.875 11.9889 22.4587 11.0412 21.5566C10.0304 20.6015 9.96723 19.9647 7.62968 19.2749C5.86071 18.7442 4.7867 18.3197 3.20727 17.6829C2.25961 17.2054 1.94373 16.3564 1.31196 15.242C0.617006 13.9685 0.427474 12.6419 0.30112 11.4214C0.174765 10.3601 0.427474 9.24579 1.05925 9.13967C1.31196 8.71516 2.38597 9.35192 2.76503 9.88256C2.82821 9.98869 2.89139 10.0948 2.95456 10.1479C3.3968 10.8377 3.83904 11.6337 4.15493 12.2174C5.41847 14.5522 8.32462 13.7562 9.84088 12.8541C10.9781 12.1643 12.4311 11.2622 12.3048 10.1479C12.3048 9.8295 12.1784 9.51111 12.0521 9.2458C11.1044 7.44162 10.1568 5.95584 9.20911 5.00069C8.70369 4.52311 8.32462 4.36392 7.75603 4.78843C6.61884 5.63745 5.10259 6.69873 3.58633 7.3355C2.89139 7.65388 2.13326 7.81307 1.50149 7.76001C1.24878 7.76001 0.996069 7.65388 0.74336 7.44162C0.490651 7.22937 0.364297 6.96405 0.364297 6.64567C0.364297 6.22116 0.932892 5.74358 1.43831 5.4252Z" fill="#EEB428"/>
<path d="M1.44093 5.47838C3.90484 4.15178 6.36875 0.80876 8.89584 1.23327C10.7912 1.55165 12.876 2.40068 14.9609 3.40889C17.2984 4.57629 20.2046 6.3274 20.3309 6.48659C21.1522 7.4948 20.71 11.3685 20.2677 13.3849C20.1414 14.0747 19.8255 16.0381 20.0782 17.1524C20.1414 17.4708 20.2046 17.7892 20.2677 18.0014C20.8363 19.7526 21.6576 20.0179 19.8255 20.5485C20.3941 21.5037 17.6143 21.5037 15.8453 21.6629C14.2659 21.769 12.0547 22.4588 11.107 21.5037C10.1594 20.6016 10.1594 19.9117 7.6323 19.1689C5.6738 18.6382 4.59979 18.2137 3.14672 17.4708C2.19906 17.0463 1.88317 16.1442 1.31458 14.9768C0.682806 13.7033 0.493274 12.3767 0.36692 11.1562C0.240565 10.0949 0.556451 8.98059 1.31458 9.08672C1.63046 8.8214 2.51494 9.56429 2.89401 10.0949C2.95719 10.2011 3.02036 10.3072 3.08354 10.3603C3.52578 11.0501 3.96802 11.8991 4.34708 12.4297C5.6738 14.5523 8.51678 13.7563 10.0962 12.7481C11.2334 12.0052 12.5601 11.0501 12.4969 9.93574C12.4969 9.61736 12.3706 9.29897 12.2442 9.08672C11.1702 7.33561 10.1594 5.84983 9.33808 4.89468C8.83266 4.36404 8.51678 4.20485 7.94818 4.62936C6.87417 5.53144 5.35792 6.53966 3.84167 7.22949C3.14672 7.54787 2.45177 7.70706 1.82 7.70706C1.56729 7.70706 1.31458 7.654 1.06187 7.44174C0.682806 7.33561 0.493274 7.07029 0.430097 6.75191C0.36692 6.27434 0.935515 5.7437 1.44093 5.47838Z" fill="#F0B82D"/>
<path d="M1.50476 5.53132C3.84231 4.31085 6.43258 0.8617 8.95967 1.28621C10.855 1.60459 12.9398 2.40055 15.0247 3.40876C17.2359 4.52311 20.2052 6.27421 20.3947 6.48647C21.216 7.49468 20.837 11.1561 20.3316 13.3848C20.2052 14.0215 19.8893 15.9318 20.0789 16.9931C20.142 17.3115 20.2052 17.6299 20.2684 17.8421C20.7738 19.5932 21.6583 19.8586 20.2052 20.4423C20.9633 21.5566 17.994 21.5035 16.1619 21.6097C14.5824 21.7158 12.2449 22.5117 11.2972 21.5566C10.3496 20.6014 10.4759 19.9116 7.69612 19.1687C5.5481 18.585 4.47408 18.1605 3.08419 17.4176C2.26288 16.9931 1.88382 16.091 1.31522 14.9236C0.683452 13.597 0.430744 12.2174 0.367566 11.05C0.241212 9.93562 0.620275 8.82128 1.44158 9.19272C1.75746 9.0866 2.57877 9.88255 2.89465 10.4132C2.95783 10.5193 3.02101 10.6254 3.08419 10.7316C3.52643 11.4745 4.03184 12.2704 4.41091 12.8011C5.86398 14.7644 8.64378 13.9154 10.2864 12.748C11.4236 11.952 12.6871 10.9438 12.5608 9.88255C12.4976 9.56417 12.4344 9.29885 12.2449 9.03353C10.9813 7.28243 10.0337 5.79664 9.21237 4.84149C8.70696 4.25779 8.39107 4.04553 7.88565 4.52311C6.81164 5.47825 5.29539 6.48647 3.77914 7.1763C3.08419 7.49468 2.38924 7.70694 1.75746 7.76C1.50476 7.76 1.25205 7.70694 0.999338 7.54774C0.74663 7.38855 0.557098 7.12323 0.493921 6.75179C0.367566 6.32728 0.936161 5.79664 1.50476 5.53132Z" fill="#F2BC32"/>
<path d="M1.50329 5.53142C3.77767 4.36402 6.36793 0.861801 8.9582 1.33938C10.9167 1.65776 12.9384 2.45372 14.96 3.46193C17.1081 4.52321 20.1406 6.32738 20.2669 6.48657C21.0882 7.49478 20.7092 10.9439 20.2037 13.3318C20.0774 13.9155 19.7615 15.7727 19.8247 16.834C19.8247 17.1524 19.8879 17.4177 19.951 17.63C20.3933 19.328 21.3409 19.6464 20.3301 20.2301C21.2778 21.4506 18.1821 21.3444 16.2868 21.4506C14.7073 21.5567 12.2434 22.4588 11.2326 21.4506C10.2849 20.5485 10.5376 19.8056 7.5683 19.0096C5.23074 18.3729 4.15673 17.9484 2.83001 17.2055C2.07188 16.781 1.69282 15.8258 1.1874 14.6584C0.681985 13.4379 0.429276 12.0583 0.366099 10.8909C0.302921 9.77653 0.681985 8.66219 1.62964 9.29895C2.00871 9.35202 2.70366 10.201 2.95636 10.7847C3.01954 10.8909 3.08272 10.997 3.08272 11.1031C3.52496 11.8991 4.03038 12.642 4.47262 13.1726C5.98887 14.9768 8.76867 14.0216 10.4113 12.8012C11.5485 11.9521 12.7488 10.8909 12.6225 9.82959C12.5593 9.51121 12.4961 9.24589 12.2434 8.98057C10.8535 7.28253 9.90586 5.74368 9.14773 4.78853C8.64231 4.15176 8.3896 3.88644 7.88419 4.41708C6.87335 5.42529 5.3571 6.43351 3.84084 7.12334C3.1459 7.44172 2.45095 7.65397 1.81917 7.7601C1.56647 7.81317 1.25058 7.7601 0.997871 7.60091C0.745162 7.44172 0.55563 7.1764 0.492453 6.85802C0.366099 6.38044 0.997871 5.79674 1.50329 5.53142Z" fill="#F4C038"/>
<path d="M1.50419 5.58454C3.71539 4.4702 6.36884 0.914924 8.9591 1.3925C10.9176 1.71088 12.9393 2.45378 14.9609 3.46199C17.0458 4.52327 20.1415 6.32744 20.2678 6.48663C21.1523 7.44178 20.7732 10.7317 20.2046 13.2788C20.0783 13.8094 19.7624 15.6136 19.7624 16.6749C19.7624 16.9933 19.8256 17.2586 19.8256 17.4708C20.1415 19.1689 21.2155 19.5403 20.5837 20.124C21.7209 21.5037 18.4357 21.3445 16.5404 21.3976C14.9609 21.4506 12.3707 22.5119 11.3598 21.4506C10.4122 20.5485 10.7912 19.7526 7.5692 18.9566C5.04211 18.3199 4.03128 17.8423 2.76774 17.0463C2.07279 16.6218 1.69372 15.6667 1.18831 14.4462C0.682888 13.2257 0.493356 11.8461 0.367002 10.6787C0.303824 9.51127 0.61971 8.55612 1.82008 9.29901C2.19914 9.51127 2.83091 10.4664 3.02044 11.0501C3.08362 11.1562 3.08362 11.3154 3.1468 11.3685C3.58904 12.2175 4.09446 12.9604 4.59987 13.4911C6.11613 15.083 8.9591 14.1278 10.6649 12.8012C11.8021 11.8991 12.8761 10.7848 12.7497 9.72352C12.6866 9.40514 12.5602 9.13982 12.3707 8.8745C10.7912 7.17646 9.84358 5.63761 9.14863 4.73552C8.64322 4.04569 8.39051 3.78037 7.88509 4.31101C6.87425 5.37229 5.42118 6.32744 3.90492 7.07033C3.27315 7.33565 2.5782 7.60097 1.94643 7.76016C1.69372 7.81322 1.37784 7.81322 1.12513 7.65403C0.872419 7.49484 0.682888 7.28259 0.556533 6.91114C0.367002 6.3805 0.998774 5.84986 1.50419 5.58454Z" fill="#F7C43D"/>
<path d="M1.50564 5.63746C3.59049 4.57618 6.30711 1.0209 8.96055 1.44541C10.9822 1.7638 12.9407 2.50669 14.8992 3.5149C16.8577 4.52312 20.0797 6.38035 20.1429 6.48648C21.0274 7.44163 20.6483 10.4663 20.0797 13.2256C19.9534 13.7562 19.6375 15.4543 19.5743 16.5155C19.5743 16.8339 19.5743 17.0993 19.5743 17.2584C19.7639 18.9565 20.9642 19.3279 20.7747 19.9647C22.1014 21.5036 18.6267 21.2382 16.7313 21.2913C15.1519 21.3444 12.4353 22.4587 11.3613 21.3974C10.4768 20.5484 10.919 19.6994 7.50748 18.8504C4.79086 18.1605 3.78002 17.736 2.57965 16.887C1.94788 16.4625 1.56882 15.5073 1.12658 14.2869C0.684338 13.0133 0.494806 11.6867 0.431629 10.5193C0.368452 9.35193 0.810692 8.29065 2.07424 9.35193C2.51648 9.72338 2.95872 10.7316 3.14825 11.3153C3.21143 11.4745 3.21143 11.5806 3.2746 11.6337C3.71684 12.5358 4.22226 13.2256 4.79086 13.7562C6.37029 15.189 9.15008 14.1807 10.919 12.695C12.1194 11.7398 13.0671 10.5724 12.9407 9.56418C12.8775 9.2458 12.7512 8.98048 12.4985 8.71516C10.7927 7.07018 9.84503 5.53133 9.21326 4.57618C8.70784 3.83329 8.51831 3.5149 8.01289 4.09861C7.06524 5.26601 5.61216 6.1681 4.03273 6.91099C3.40096 7.22937 2.70601 7.49469 2.07424 7.70695C1.82153 7.76001 1.50564 7.81308 1.18976 7.65389C0.937047 7.54776 0.684338 7.28244 0.557984 6.91099C0.431629 6.43342 1.00022 5.84971 1.50564 5.63746Z" fill="#F9C842"/>
<path d="M1.50519 5.69059C3.52686 4.68238 6.30666 1.02097 8.9601 1.49855C11.045 1.86999 12.9403 2.55982 14.8988 3.51497C16.7941 4.47012 20.0161 6.38042 20.1425 6.48655C21.0269 7.4417 20.6479 10.2541 20.0793 13.1726C20.0161 13.6502 19.6371 15.2951 19.5107 16.3034C19.5107 16.6217 19.4475 16.8871 19.4475 17.0463C19.5739 18.6912 20.8374 19.1157 21.027 19.7525C22.5432 21.4506 18.9421 21.1322 16.9836 21.1322C15.341 21.1852 12.5612 22.4057 11.4872 21.3444C10.6027 20.4954 11.1713 19.6464 7.50703 18.7443C4.60088 18.0014 3.59004 17.5769 2.45285 16.6748C1.94743 16.2503 1.50519 15.2421 1.06295 14.0216C0.68389 12.8011 0.431181 11.4215 0.368004 10.3071C0.304827 9.13974 0.873422 8.0254 2.20014 9.352C2.64238 9.82957 3.02145 10.9439 3.21098 11.5807C3.27416 11.7399 3.27416 11.846 3.33733 11.8991C3.77957 12.8542 4.34817 13.544 4.91676 14.0216C6.55937 15.2951 9.33917 14.1808 11.1081 12.642C12.3085 11.6337 13.1298 10.4133 13.0034 9.40506C12.9403 9.08668 12.8139 8.82136 12.5612 8.55604C10.7291 6.91106 9.78141 5.37221 9.21281 4.41706C8.70739 3.6211 8.51786 3.30272 8.07562 3.88642C7.12796 5.10689 5.73807 6.00897 4.15864 6.80493C3.52686 7.12331 2.83191 7.4417 2.20014 7.70702C1.94743 7.81314 1.63155 7.81314 1.31566 7.70702C1.06295 7.60089 0.810244 7.38863 0.68389 7.01719C0.431181 6.48655 1.06295 5.90285 1.50519 5.69059Z" fill="#FBCC48"/>
<path d="M17.2342 21.0793C15.5916 21.1324 12.6854 22.459 11.5482 21.3446C10.7269 20.4956 11.4219 19.5935 7.5049 18.6384C4.40922 17.8955 3.39839 17.471 2.38755 16.5158C1.50307 15.7199 0.555412 12.483 0.492234 10.0951C0.429057 8.87462 1.12401 7.76028 2.51391 9.35219C3.14568 10.0951 3.33521 11.7931 3.46156 12.1646C3.9038 13.1197 4.4724 13.8096 5.10417 14.2871C8.26303 16.4628 15.1493 10.4135 12.6854 8.45011C8.83162 5.37241 9.02116 2.4539 8.13668 3.72743C6.87313 5.5316 4.53558 6.48675 2.32437 7.65415C1.88213 7.86641 1.12401 7.86641 0.681766 7.01739C0.429057 6.48675 1.06083 5.90305 1.56625 5.69079C3.46156 4.7887 6.30454 1.07424 9.02116 1.49875C11.106 1.87019 13.0013 2.50696 14.8966 3.51517C16.7288 4.41726 20.014 6.38062 20.1403 6.48675C21.0248 7.38883 20.6458 10.042 20.0772 13.1197C19.9508 13.6504 19.319 16.1444 19.319 16.8873C19.319 18.4792 20.6458 18.9568 21.2775 19.6466C22.9833 21.4508 19.1927 21.0262 17.2342 21.0793Z" fill="#FDD04D"/>
<mask id="mask0_0_1016" style="mask-type:alpha" maskUnits="userSpaceOnUse" x="0" y="0" width="23" height="23">
<path d="M20.6466 6.48647C20.2676 6.0089 12.6231 1.55153 8.89567 0.96783C6.62129 0.596383 4.41009 3.56796 1.44076 5.266C0.493102 5.79664 -0.0754929 6.53953 0.429925 7.33549C0.99852 8.18451 2.13571 8.29064 3.20972 7.91919C5.42092 7.07017 8.07437 4.73536 9.27473 5.58438C10.791 6.5926 11.7386 8.5029 11.7386 10.8377C11.7386 12.1112 9.96968 12.748 8.76932 13.1195C7.50577 13.544 4.22056 14.0215 3.52561 10.7846C3.33608 9.98868 2.89384 8.82128 2.38842 8.5029C1.75665 8.13145 0.177216 7.86613 0.0508615 8.98047C-0.0754929 10.3601 0.0508615 11.3683 0.240393 12.3766C0.429925 13.597 0.556279 14.9236 1.44076 16.2502C2.19889 17.3115 2.38842 18.1075 3.90467 18.532C8.2639 19.8055 8.76931 19.9647 10.7278 21.7689C12.3704 23.2546 17.2351 21.7158 18.4986 21.6097C23.4264 21.079 22.2892 21.2382 20.8362 18.2666C20.2676 17.0462 20.3307 14.7644 20.5835 13.8093C20.8362 12.748 21.4679 7.60081 20.6466 6.48647Z" fill="url(#paint0_linear_0_1016)"/>
</mask>
<g mask="url(#mask0_0_1016)">
<path opacity="0.3" d="M20.6466 6.48647C20.2676 6.0089 12.6231 1.55153 8.89567 0.96783C6.62129 0.596383 4.41009 3.56796 1.44076 5.266C0.493102 5.79664 -0.0754929 6.53953 0.429925 7.33549C0.99852 8.18451 2.13571 8.29064 3.20972 7.91919C5.42092 7.07017 8.07437 4.73536 9.27473 5.58438C10.791 6.5926 11.7386 8.5029 11.7386 10.8377C11.7386 12.1112 9.96968 12.748 8.76932 13.1195C7.50577 13.544 4.22056 14.0215 3.52561 10.7846C3.33608 9.98868 2.89384 8.82128 2.38842 8.5029C1.75665 8.13145 0.177216 7.86613 0.0508615 8.98047C-0.0754929 10.3601 0.0508615 11.3683 0.240393 12.3766C0.429925 13.597 0.556279 14.9236 1.44076 16.2502C2.19889 17.3115 2.38842 18.1075 3.90467 18.532C8.2639 19.8055 8.76931 19.9647 10.7278 21.7689C12.3704 23.2546 17.2351 21.7158 18.4986 21.6097C23.4264 21.079 22.2892 21.2382 20.8362 18.2666C20.2676 17.0462 20.3307 14.7644 20.5835 13.8093C20.8362 12.748 21.4679 7.60081 20.6466 6.48647Z" fill="url(#paint1_linear_0_1016)"/>
</g>
<defs>
<linearGradient id="paint0_linear_0_1016" x1="7.00288" y1="20.1436" x2="14.64" y2="3.04292" gradientUnits="userSpaceOnUse">
<stop stop-color="white"/>
<stop offset="0.00368297" stop-color="#FCFCFC"/>
<stop offset="0.0847651" stop-color="#C8C8C8"/>
<stop offset="0.1696" stop-color="#999999"/>
<stop offset="0.2592" stop-color="#707070"/>
<stop offset="0.3528" stop-color="#4D4D4D"/>
<stop offset="0.4515" stop-color="#313131"/>
<stop offset="0.5572" stop-color="#1B1B1B"/>
<stop offset="0.673" stop-color="#0C0C0C"/>
<stop offset="0.8067" stop-color="#030303"/>
<stop offset="1"/>
</linearGradient>
<linearGradient id="paint1_linear_0_1016" x1="7.00288" y1="20.1436" x2="14.64" y2="3.04292" gradientUnits="userSpaceOnUse">
<stop stop-color="#E3A00D"/>
<stop offset="0.121" stop-color="#E3A00D"/>
<stop offset="1" stop-color="#E3A00D"/>
</linearGradient>
</defs>
</svg>
