<svg width="60" height="60" viewBox="0 0 60 60" fill="none" xmlns="http://www.w3.org/2000/svg">
<rect width="60" height="60" rx="30" fill="#FFA42F"/>
<path d="M29.5714 15.4286C21.3005 15.4286 14.5714 22.1577 14.5714 30.4286C14.5714 38.6994 21.3005 45.4286 29.5714 45.4286C32.2091 45.4286 34.8027 44.7346 37.0732 43.4208L35.1964 40.1743C33.4954 41.1585 31.5499 41.6786 29.5714 41.6786C23.3678 41.6786 18.3214 36.6321 18.3214 30.4286C18.3214 24.225 23.3678 19.1785 29.5714 19.1785C35.775 19.1785 40.8214 24.225 40.8214 30.4286V32.0618C40.8214 33.2887 40.0332 34.1785 38.9464 34.1785C37.9127 34.1785 37.0714 33.3372 37.0714 32.3035V24.8035H34.4795C33.1604 23.6512 31.4563 22.9285 29.5714 22.9285C25.436 22.9285 22.0714 26.2931 22.0714 30.4286C22.0714 34.564 25.436 37.9286 29.5714 37.9286C31.5407 37.9286 33.3212 37.1498 34.6609 35.9039C35.6935 37.1311 37.2208 37.9286 38.9464 37.9286C42.1004 37.9286 44.5714 35.3514 44.5714 32.0618V30.4286C44.5714 22.1577 37.8423 15.4286 29.5714 15.4286V15.4286ZM29.5714 34.1785C27.5032 34.1785 25.8214 32.4967 25.8214 30.4286C25.8214 28.3604 27.5033 26.6786 29.5714 26.6786C31.6396 26.6786 33.3214 28.3604 33.3214 30.4286C33.3214 32.4968 31.6396 34.1785 29.5714 34.1785Z" fill="white"/>
</svg>
