<svg width="60" height="60" viewBox="0 0 60 60" fill="none" xmlns="http://www.w3.org/2000/svg">
<rect width="60" height="60" rx="30" fill="#5080FB"/>
<path d="M46.9347 29.6698L38.1843 20.9194C37.9122 20.6473 37.4308 20.6473 37.1587 20.9194L35.2616 22.8165C34.9782 23.0998 34.9782 23.5591 35.2616 23.8425L41.6023 30.1824L35.2619 36.5235C34.9786 36.8068 34.9786 37.2661 35.2619 37.5495L37.159 39.4466C37.2951 39.5826 37.4798 39.6595 37.672 39.6595C37.864 39.6595 38.049 39.5826 38.185 39.4466L46.9347 30.6965C47.2181 30.4128 47.2181 29.9532 46.9347 29.6698Z" fill="white"/>
<path d="M24.7458 36.5235L18.4062 30.1832L24.7468 23.8432C24.8829 23.7072 24.9594 23.5229 24.9594 23.3302C24.9594 23.1379 24.8833 22.9533 24.7468 22.8172L22.8498 20.9201C22.7137 20.7841 22.529 20.7075 22.3368 20.7075C22.1445 20.7075 21.9598 20.7841 21.8238 20.9201L13.073 29.6698C12.7896 29.9531 12.7896 30.4125 13.073 30.6962L21.8234 39.4462C21.9594 39.5823 22.1441 39.6592 22.3364 39.6592C22.5287 39.6592 22.7133 39.5823 22.8494 39.4462L24.7465 37.5491C25.0298 37.2661 25.0298 36.8068 24.7458 36.5235Z" fill="white"/>
<path d="M34.9809 17.976C34.8887 17.8069 34.7334 17.6814 34.5491 17.627L33.0112 17.1731C32.6274 17.0592 32.2232 17.2794 32.11 17.6636L24.9705 41.8418C24.916 42.0264 24.9371 42.2249 25.0289 42.3936C25.1207 42.563 25.2763 42.6882 25.4606 42.743L26.9985 43.1968C27.0671 43.2171 27.1364 43.2269 27.2042 43.2269C27.5173 43.2269 27.8065 43.0223 27.8997 42.7063L35.0393 18.5278C35.0937 18.3431 35.073 18.1447 34.9809 17.976Z" fill="white"/>
</svg>
